<?xml version="1.0" encoding="UTF-8" standalone="no"?>
<!DOCTYPE svg PUBLIC "-//W3C//DTD SVG 1.1//EN"
 "http://www.w3.org/Graphics/SVG/1.1/DTD/svg11.dtd">
<!-- Generated by graphviz version 2.43.0 (0)
 -->
<!-- Title: %3 Pages: 1 -->
<svg width="986pt" height="238pt"
 viewBox="0.00 0.00 985.50 237.74" xmlns="http://www.w3.org/2000/svg" xmlns:xlink="http://www.w3.org/1999/xlink">
<g id="graph0" class="graph" transform="scale(1 1) rotate(0) translate(36 201.74)">
<title>%3</title>
<polygon fill="dimgray" stroke="transparent" points="-36,36 -36,-201.74 949.5,-201.74 949.5,36 -36,36"/>
<text text-anchor="middle" x="456.75" y="-150.54" font-family="Helvetica,sans-Serif" font-size="14.00">Sweep&#39;s Plan &amp; Progress</text>
<!-- start -->
<g id="node1" class="node">
<title>start</title>
</g>
<!-- 11036e3d&#45;6292&#45;45d4&#45;91a1&#45;d7deb01ad5fc -->
<g id="node3" class="node">
<title>11036e3d&#45;6292&#45;45d4&#45;91a1&#45;d7deb01ad5fc</title>
<ellipse fill="#0ee832" stroke="black" cx="259" cy="-99.87" rx="180.12" ry="26.74"/>
<text text-anchor="middle" x="259" y="-103.67" font-family="Helvetica,sans-Serif" font-size="14.00">✓ Modify</text>
<text text-anchor="middle" x="259" y="-88.67" font-family="Helvetica,sans-Serif" font-size="14.00">src/components/styles.module.css</text>
</g>
<!-- start&#45;&gt;11036e3d&#45;6292&#45;45d4&#45;91a1&#45;d7deb01ad5fc -->
<g id="edge4" class="edge">
<title>start&#45;&gt;11036e3d&#45;6292&#45;45d4&#45;91a1&#45;d7deb01ad5fc</title>
<path fill="none" stroke="black" d="M27.67,-99.87C31.01,-99.87 46.69,-99.87 68.44,-99.87"/>
<polygon fill="black" stroke="black" points="68.48,-103.37 78.48,-99.87 68.48,-96.37 68.48,-103.37"/>
<text text-anchor="middle" x="53.09" y="-106.67" font-family="Helvetica,sans-Serif" font-size="14.00">Start</text>
</g>
<!-- end -->
<g id="node2" class="node">
<title>end</title>
</g>
<!-- 04c9188f&#45;8016&#45;4115&#45;9905&#45;a2c33fbf9975 -->
<g id="node4" class="node">
<title>04c9188f&#45;8016&#45;4115&#45;9905&#45;a2c33fbf9975</title>
<ellipse fill="#0ee832" stroke="black" cx="672" cy="-99.87" rx="179.71" ry="26.74"/>
<text text-anchor="middle" x="672" y="-103.67" font-family="Helvetica,sans-Serif" font-size="14.00">✓ Modify</text>
<text text-anchor="middle" x="672" y="-88.67" font-family="Helvetica,sans-Serif" font-size="14.00">src/components/TerminalModal.jsx</text>
</g>
<!-- 11036e3d&#45;6292&#45;45d4&#45;91a1&#45;d7deb01ad5fc&#45;&gt;04c9188f&#45;8016&#45;4115&#45;9905&#45;a2c33fbf9975 -->
<g id="edge2" class="edge">
<title>11036e3d&#45;6292&#45;45d4&#45;91a1&#45;d7deb01ad5fc&#45;&gt;04c9188f&#45;8016&#45;4115&#45;9905&#45;a2c33fbf9975</title>
<path fill="none" stroke="black" d="M439.69,-99.87C453.81,-99.87 467.92,-99.87 482.04,-99.87"/>
<polygon fill="black" stroke="black" points="482.32,-103.37 492.32,-99.87 482.32,-96.37 482.32,-103.37"/>
</g>
<!-- abdfd6c3&#45;a186&#45;425d&#45;bac7&#45;61677f562a89 -->
<g id="node5" class="node">
<title>abdfd6c3&#45;a186&#45;425d&#45;bac7&#45;61677f562a89</title>
<polygon fill="#0ee832" stroke="black" points="448,-36 0,-36 0,0 448,0 448,-36"/>
<text text-anchor="middle" x="224" y="-14.3" font-family="Helvetica,sans-Serif" font-size="14.00">✓ Run GitHub Actions for `src/components/styles.module.css`</text>
</g>
<!-- 11036e3d&#45;6292&#45;45d4&#45;91a1&#45;d7deb01ad5fc&#45;&gt;abdfd6c3&#45;a186&#45;425d&#45;bac7&#45;61677f562a89 -->
<g id="edge1" class="edge">
<title>11036e3d&#45;6292&#45;45d4&#45;91a1&#45;d7deb01ad5fc&#45;&gt;abdfd6c3&#45;a186&#45;425d&#45;bac7&#45;61677f562a89</title>
<path fill="none" stroke="black" stroke-dasharray="5,2" d="M247.54,-72.72C243.72,-63.99 239.45,-54.26 235.62,-45.51"/>
<polygon fill="black" stroke="black" points="238.73,-43.9 231.51,-36.15 232.32,-46.71 238.73,-43.9"/>
</g>
<!-- 04c9188f&#45;8016&#45;4115&#45;9905&#45;a2c33fbf9975&#45;&gt;end -->
<g id="edge5" class="edge">
<title>04c9188f&#45;8016&#45;4115&#45;9905&#45;a2c33fbf9975&#45;&gt;end</title>
<path fill="none" stroke="black" d="M851.78,-99.87C871.94,-99.87 888.92,-99.87 899.25,-99.87"/>
<polygon fill="black" stroke="black" points="899.36,-103.37 909.36,-99.87 899.36,-96.37 899.36,-103.37"/>
<text text-anchor="middle" x="880.55" y="-106.67" font-family="Helvetica,sans-Serif" font-size="14.00">Finish</text>
</g>
<!-- c31a9fe6&#45;581e&#45;4169&#45;983c&#45;98165520c9ba -->
<g id="node6" class="node">
<title>c31a9fe6&#45;581e&#45;4169&#45;983c&#45;98165520c9ba</title>
<polygon fill="#0ee832" stroke="black" points="913.5,-36 466.5,-36 466.5,0 913.5,0 913.5,-36"/>
<text text-anchor="middle" x="690" y="-14.3" font-family="Helvetica,sans-Serif" font-size="14.00">✓ Run GitHub Actions for `src/components/TerminalModal.jsx`</text>
</g>
<!-- 04c9188f&#45;8016&#45;4115&#45;9905&#45;a2c33fbf9975&#45;&gt;c31a9fe6&#45;581e&#45;4169&#45;983c&#45;98165520c9ba -->
<g id="edge3" class="edge">
<title>04c9188f&#45;8016&#45;4115&#45;9905&#45;a2c33fbf9975&#45;&gt;c31a9fe6&#45;581e&#45;4169&#45;983c&#45;98165520c9ba</title>
<path fill="none" stroke="black" stroke-dasharray="5,2" d="M677.89,-72.72C679.82,-64.18 681.96,-54.68 683.9,-46.08"/>
<polygon fill="black" stroke="black" points="687.35,-46.67 686.14,-36.15 680.52,-45.13 687.35,-46.67"/>
</g>
</g>
</svg>
