<?xml version="1.0" encoding="UTF-8" standalone="no"?>
<!DOCTYPE svg PUBLIC "-//W3C//DTD SVG 1.1//EN"
 "http://www.w3.org/Graphics/SVG/1.1/DTD/svg11.dtd">
<!-- Generated by graphviz version 2.43.0 (0)
 -->
<!-- Title: %3 Pages: 1 -->
<svg width="982pt" height="238pt"
 viewBox="0.00 0.00 982.00 237.74" xmlns="http://www.w3.org/2000/svg" xmlns:xlink="http://www.w3.org/1999/xlink">
<g id="graph0" class="graph" transform="scale(1 1) rotate(0) translate(36 201.74)">
<title>%3</title>
<polygon fill="dimgray" stroke="transparent" points="-36,36 -36,-201.74 946,-201.74 946,36 -36,36"/>
<text text-anchor="middle" x="455" y="-150.54" font-family="Helvetica,sans-Serif" font-size="14.00">Sweep&#39;s Plan &amp; Progress</text>
<!-- start -->
<g id="node1" class="node">
<title>start</title>
</g>
<!-- 11036e3d&#45;6292&#45;45d4&#45;91a1&#45;d7deb01ad5fc -->
<g id="node3" class="node">
<title>11036e3d&#45;6292&#45;45d4&#45;91a1&#45;d7deb01ad5fc</title>
<ellipse fill="yellow" stroke="black" cx="257" cy="-99.87" rx="180.12" ry="26.74"/>
<text text-anchor="middle" x="257" y="-103.67" font-family="Helvetica,sans-Serif" font-size="14.00">⋯ Modify</text>
<text text-anchor="middle" x="257" y="-88.67" font-family="Helvetica,sans-Serif" font-size="14.00">src/components/styles.module.css</text>
</g>
<!-- start&#45;&gt;11036e3d&#45;6292&#45;45d4&#45;91a1&#45;d7deb01ad5fc -->
<g id="edge4" class="edge">
<title>start&#45;&gt;11036e3d&#45;6292&#45;45d4&#45;91a1&#45;d7deb01ad5fc</title>
<path fill="none" stroke="black" d="M25.67,-99.87C29.01,-99.87 44.69,-99.87 66.44,-99.87"/>
<polygon fill="black" stroke="black" points="66.48,-103.37 76.48,-99.87 66.48,-96.37 66.48,-103.37"/>
<text text-anchor="middle" x="51.09" y="-106.67" font-family="Helvetica,sans-Serif" font-size="14.00">Start</text>
</g>
<!-- end -->
<g id="node2" class="node">
<title>end</title>
</g>
<!-- 04c9188f&#45;8016&#45;4115&#45;9905&#45;a2c33fbf9975 -->
<g id="node4" class="node">
<title>04c9188f&#45;8016&#45;4115&#45;9905&#45;a2c33fbf9975</title>
<ellipse fill="white" stroke="black" cx="670" cy="-99.87" rx="179.71" ry="26.74"/>
<text text-anchor="middle" x="670" y="-103.67" font-family="Helvetica,sans-Serif" font-size="14.00">▶ Modify</text>
<text text-anchor="middle" x="670" y="-88.67" font-family="Helvetica,sans-Serif" font-size="14.00">src/components/TerminalModal.jsx</text>
</g>
<!-- 11036e3d&#45;6292&#45;45d4&#45;91a1&#45;d7deb01ad5fc&#45;&gt;04c9188f&#45;8016&#45;4115&#45;9905&#45;a2c33fbf9975 -->
<g id="edge2" class="edge">
<title>11036e3d&#45;6292&#45;45d4&#45;91a1&#45;d7deb01ad5fc&#45;&gt;04c9188f&#45;8016&#45;4115&#45;9905&#45;a2c33fbf9975</title>
<path fill="none" stroke="black" d="M437.69,-99.87C451.81,-99.87 465.92,-99.87 480.04,-99.87"/>
<polygon fill="black" stroke="black" points="480.32,-103.37 490.32,-99.87 480.32,-96.37 480.32,-103.37"/>
</g>
<!-- abdfd6c3&#45;a186&#45;425d&#45;bac7&#45;61677f562a89 -->
<g id="node5" class="node">
<title>abdfd6c3&#45;a186&#45;425d&#45;bac7&#45;61677f562a89</title>
<polygon fill="white" stroke="black" points="446,-36 0,-36 0,0 446,0 446,-36"/>
<text text-anchor="middle" x="223" y="-14.3" font-family="Helvetica,sans-Serif" font-size="14.00">▶ Run GitHub Actions for `src/components/styles.module.css`</text>
</g>
<!-- 11036e3d&#45;6292&#45;45d4&#45;91a1&#45;d7deb01ad5fc&#45;&gt;abdfd6c3&#45;a186&#45;425d&#45;bac7&#45;61677f562a89 -->
<g id="edge1" class="edge">
<title>11036e3d&#45;6292&#45;45d4&#45;91a1&#45;d7deb01ad5fc&#45;&gt;abdfd6c3&#45;a186&#45;425d&#45;bac7&#45;61677f562a89</title>
<path fill="none" stroke="black" stroke-dasharray="5,2" d="M245.87,-72.72C242.15,-63.99 238.01,-54.26 234.29,-45.51"/>
<polygon fill="black" stroke="black" points="237.44,-43.98 230.3,-36.15 231,-46.72 237.44,-43.98"/>
</g>
<!-- 04c9188f&#45;8016&#45;4115&#45;9905&#45;a2c33fbf9975&#45;&gt;end -->
<g id="edge5" class="edge">
<title>04c9188f&#45;8016&#45;4115&#45;9905&#45;a2c33fbf9975&#45;&gt;end</title>
<path fill="none" stroke="black" d="M849.78,-99.87C869.94,-99.87 886.92,-99.87 897.25,-99.87"/>
<polygon fill="black" stroke="black" points="897.36,-103.37 907.36,-99.87 897.36,-96.37 897.36,-103.37"/>
<text text-anchor="middle" x="878.55" y="-106.67" font-family="Helvetica,sans-Serif" font-size="14.00">Finish</text>
</g>
<!-- c31a9fe6&#45;581e&#45;4169&#45;983c&#45;98165520c9ba -->
<g id="node6" class="node">
<title>c31a9fe6&#45;581e&#45;4169&#45;983c&#45;98165520c9ba</title>
<polygon fill="white" stroke="black" points="910,-36 464,-36 464,0 910,0 910,-36"/>
<text text-anchor="middle" x="687" y="-14.3" font-family="Helvetica,sans-Serif" font-size="14.00">▶ Run GitHub Actions for `src/components/TerminalModal.jsx`</text>
</g>
<!-- 04c9188f&#45;8016&#45;4115&#45;9905&#45;a2c33fbf9975&#45;&gt;c31a9fe6&#45;581e&#45;4169&#45;983c&#45;98165520c9ba -->
<g id="edge3" class="edge">
<title>04c9188f&#45;8016&#45;4115&#45;9905&#45;a2c33fbf9975&#45;&gt;c31a9fe6&#45;581e&#45;4169&#45;983c&#45;98165520c9ba</title>
<path fill="none" stroke="black" stroke-dasharray="5,2" d="M675.57,-72.72C677.38,-64.18 679.41,-54.68 681.24,-46.08"/>
<polygon fill="black" stroke="black" points="684.69,-46.66 683.35,-36.15 677.85,-45.2 684.69,-46.66"/>
</g>
</g>
</svg>
